<?xml version="1.0" encoding="UTF-8"?>
<svg id="Layer_2" data-name="Layer 2" xmlns="http://www.w3.org/2000/svg" viewBox="0 0 475.27 684.8">
  <defs>
    <style>
      .cls-1 {
        font-family: MicrosoftSansSerif, 'Microsoft Sans Serif';
        font-size: 150px;
      }

      .cls-1, .cls-2 {
        fill: #58595b;
      }
    </style>
  </defs>
  <g id="Logo">
    <g id="Title">
      <text class="cls-1" transform="translate(0 646.27)"><tspan x="0" y="0">Sumaq</tspan></text>
      <text class="cls-1" transform="translate(62.11 521.8)"><tspan x="0" y="0">Habit</tspan></text>
    </g>
    <g id="Mini">
      <g id="H">
        <path class="cls-2" d="M308.66,178.46h-33.91c-3.24,0-5.87,2.63-5.87,5.87v60.78c0,2.95-2.39,5.35-5.35,5.35h-51.82c-2.94,0-5.32-2.38-5.32-5.32v-60.82c0-3.24-2.63-5.87-5.87-5.87h-33.91c-3.24,0-5.87,2.63-5.87,5.87v185.48c0,3.24,2.63,5.87,5.87,5.87h33.91c3.24,0,5.87-2.63,5.87-5.87v-70.17c0-2.95,2.39-5.35,5.35-5.35h51.75c2.97,0,5.38,2.41,5.38,5.38v70.14c0,3.24,2.63,5.87,5.87,5.87h33.91c3.24,0,5.87-2.63,5.87-5.87v-185.48c0-3.24-2.63-5.87-5.87-5.87Z"/>
      </g>
      <g id="Crown">
        <path class="cls-2" d="M46.75,120.65c21.63-21.39,43.26-42.79,64.89-64.18,4.01-3.97,10.46-4,14.51-.07,5.88,5.69,11.76,11.39,17.63,17.08,3.6,3.48,9.32,3.45,12.87-.08,22.83-22.71,45.66-45.41,68.5-68.12,7.09-7.05,18.53-7.04,25.61,0,22.76,22.65,45.51,45.31,68.27,67.96,3.44,3.42,8.99,3.47,12.48.1,5.77-5.57,11.54-11.14,17.3-16.71,4.29-4.15,11.11-4.12,15.37.06,21.21,20.83,42.43,41.65,63.64,62.48,3.19,3.13,3.07,8.3-.25,11.29-3.13,2.81-6.25,5.61-9.38,8.42-3.92,3.52-9.91,3.38-13.66-.33-13.65-13.49-27.3-26.99-40.96-40.48-3.88-3.83-10.12-3.81-13.97.04-5.48,5.48-10.96,10.96-16.43,16.43-4.32,4.32-11.31,4.32-15.64.02-23.83-23.71-47.67-47.43-71.5-71.14-4.62-4.59-12.07-4.59-16.69,0-23.89,23.8-47.78,47.59-71.67,71.39-4,3.99-10.47,4.02-14.51.06l-16.65-16.29c-4.47-4.37-11.62-4.36-16.07.04-13.85,13.68-27.69,27.35-41.54,41.03-3.1,3.06-8.1,3.03-11.16-.07-3.68-3.73-7.36-7.45-11.04-11.18-2.13-2.16-2.11-5.63.04-7.76Z"/>
        <rect class="cls-2" x="101.89" y="143.72" width="37" height="37" rx="7.87" ry="7.87"/>
        <rect class="cls-2" x="336.81" y="143.53" width="37" height="37" rx="7.87" ry="7.87"/>
        <rect class="cls-2" x="208.51" y="90.76" width="58.25" height="57.47" rx="8.24" ry="8.24" transform="translate(-14.9 203.03) rotate(-45)"/>
      </g>
    </g>
  </g>
</svg>